<?xml version="1.0" encoding="utf-8"?>
<!-- Generator: Adobe Illustrator 23.0.5, SVG Export Plug-In . SVG Version: 6.00 Build 0)  -->
<svg version="1.1" id="Layer_1" xmlns="http://www.w3.org/2000/svg" xmlns:xlink="http://www.w3.org/1999/xlink" x="0px" y="0px"
	 viewBox="0 0 1920 1080" style="enable-background:new 0 0 1920 1080;" xml:space="preserve">
<style type="text/css">
	.st0{fill:#1F345B;}
	.st1{fill:#EEA323;}
	.st2{fill:#1E1E1E;}
	.st3{fill:none;}
	.st4{fill:#FFFFFF;}
</style>
<g>
	<path class="st0" d="M652.43,582.64V358.13h77.34c17.46,0,30.78,1.07,39.97,3.22c12.86,2.96,23.84,8.32,32.93,16.08
		c11.84,10.01,20.7,22.79,26.57,38.36c5.87,15.57,8.81,33.36,8.81,53.37c0,17.05-1.99,32.16-5.97,45.33
		c-3.98,13.17-9.09,24.07-15.32,32.7c-6.23,8.63-13.04,15.42-20.44,20.37c-7.4,4.96-16.34,8.7-26.8,11.26
		c-10.47,2.55-22.49,3.83-36.07,3.83H652.43z M682.14,556.14h47.94c14.8,0,26.42-1.38,34.84-4.13c8.42-2.76,15.13-6.63,20.14-11.64
		c7.05-7.04,12.53-16.51,16.46-28.41c3.93-11.89,5.9-26.32,5.9-43.26c0-23.48-3.86-41.53-11.56-54.14
		c-7.71-12.61-17.08-21.06-28.1-25.35c-7.96-3.06-20.78-4.59-38.44-4.59h-47.17V556.14z"/>
	<path class="st0" d="M875.57,389.83v-31.7h27.57v31.7H875.57z M875.57,582.64V420h27.57v162.64H875.57z"/>
	<path class="st0" d="M940.04,596.12l26.8,3.98c1.12,8.27,4.24,14.29,9.34,18.07c6.84,5.1,16.18,7.66,28.03,7.66
		c12.76,0,22.61-2.55,29.56-7.66c6.94-5.11,11.64-12.25,14.09-21.44c1.43-5.62,2.09-17.41,1.99-35.38
		c-12.05,14.19-27.06,21.29-45.03,21.29c-22.36,0-39.66-8.07-51.91-24.2c-12.25-16.13-18.38-35.48-18.38-58.04
		c0-15.52,2.81-29.84,8.42-42.96c5.61-13.12,13.76-23.25,24.43-30.4c10.67-7.14,23.2-10.72,37.6-10.72
		c19.2,0,35.02,7.76,47.48,23.28V420h25.42v140.59c0,25.32-2.58,43.26-7.74,53.83c-5.15,10.57-13.32,18.91-24.5,25.04
		c-11.18,6.12-24.94,9.19-41.27,9.19c-19.4,0-35.07-4.36-47.02-13.1C945.4,626.82,939.63,613.67,940.04,596.12z M962.86,498.41
		c0,21.34,4.23,36.91,12.71,46.71c8.47,9.8,19.09,14.7,31.85,14.7c12.66,0,23.28-4.87,31.86-14.62
		c8.58-9.75,12.86-25.04,12.86-45.87c0-19.91-4.42-34.92-13.25-45.02c-8.83-10.11-19.48-15.16-31.93-15.16
		c-12.25,0-22.67,4.98-31.24,14.93C967.15,464.03,962.86,478.8,962.86,498.41z"/>
	<path class="st0" d="M1119.68,389.83v-31.7h27.57v31.7H1119.68z M1119.68,582.64V420h27.57v162.64H1119.68z"/>
	<path class="st0" d="M1249.4,557.98l3.98,24.35c-7.76,1.63-14.7,2.45-20.83,2.45c-10.01,0-17.76-1.58-23.28-4.75
		c-5.51-3.16-9.39-7.33-11.64-12.48c-2.25-5.16-3.37-16-3.37-32.54v-93.57h-20.21V420h20.21v-40.28l27.42-16.54V420h27.72v21.44
		h-27.72v95.11c0,7.86,0.48,12.91,1.46,15.16c0.97,2.25,2.55,4.04,4.75,5.36c2.19,1.33,5.33,1.99,9.42,1.99
		C1240.36,559.05,1244.4,558.7,1249.4,557.98z"/>
	<path class="st0" d="M1382.49,562.58c-10.21,8.68-20.04,14.81-29.48,18.38c-9.44,3.57-19.58,5.36-30.4,5.36
		c-17.87,0-31.6-4.36-41.2-13.09c-9.59-8.73-14.39-19.88-14.39-33.46c0-7.96,1.81-15.24,5.44-21.82
		c3.63-6.59,8.37-11.87,14.25-15.85c5.87-3.98,12.48-6.99,19.83-9.04c5.41-1.43,13.58-2.81,24.51-4.14
		c22.26-2.65,38.64-5.82,49.16-9.49c0.1-3.78,0.15-6.18,0.15-7.2c0-11.23-2.61-19.14-7.81-23.74c-7.04-6.23-17.51-9.34-31.4-9.34
		c-12.96,0-22.54,2.27-28.71,6.82c-6.18,4.55-10.75,12.59-13.71,24.12l-26.96-3.68c2.45-11.54,6.48-20.85,12.1-27.95
		c5.61-7.09,13.73-12.56,24.35-16.39c10.62-3.83,22.92-5.74,36.91-5.74c13.88,0,25.16,1.63,33.84,4.9
		c8.68,3.27,15.06,7.38,19.14,12.33c4.08,4.95,6.94,11.21,8.58,18.76c0.92,4.7,1.38,13.17,1.38,25.42v36.75
		c0,25.63,0.59,41.83,1.76,48.62c1.17,6.79,3.5,13.3,6.97,19.53H1388C1385.14,576.92,1383.3,570.23,1382.49,562.58z M1380.19,501.01
		c-10.01,4.09-25.01,7.56-45.03,10.41c-11.33,1.64-19.35,3.47-24.04,5.51c-4.7,2.04-8.32,5.03-10.88,8.96
		c-2.55,3.93-3.83,8.29-3.83,13.09c0,7.35,2.78,13.48,8.35,18.38c5.56,4.9,13.71,7.35,24.42,7.35c10.62,0,20.06-2.32,28.33-6.97
		c8.27-4.65,14.34-11,18.23-19.07c2.96-6.23,4.44-15.42,4.44-27.57V501.01z"/>
	<path class="st0" d="M1450.18,582.64V358.13h27.57v224.51H1450.18z"/>
	<path class="st0" d="M1509.75,515.25v-27.72h84.69v27.72H1509.75z"/>
	<path class="st1" d="M1798.58,558.59c13.78,9.49,26.49,16.44,38.13,20.83l-8.73,20.67c-16.13-5.82-32.21-15.01-48.24-27.57
		c-16.64,9.29-35.02,13.94-55.13,13.94c-20.32,0-38.74-4.9-55.28-14.7c-16.54-9.8-29.28-23.58-38.21-41.35
		c-8.93-17.76-13.4-37.77-13.4-60.03c0-22.15,4.49-42.32,13.48-60.49c8.98-18.17,21.77-32.01,38.36-41.5
		c16.59-9.5,35.15-14.24,55.67-14.24c20.72,0,39.41,4.93,56.05,14.78c16.64,9.86,29.33,23.64,38.06,41.35
		c8.73,17.71,13.09,37.7,13.09,59.96c0,18.48-2.81,35.1-8.42,49.85C1818.39,534.83,1809.92,547.67,1798.58,558.59z M1733.19,520.61
		c17.16,4.8,31.29,11.95,42.42,21.44c17.46-15.93,26.19-39.87,26.19-71.83c0-18.17-3.09-34.05-9.26-47.63
		c-6.18-13.58-15.22-24.12-27.11-31.63c-11.89-7.5-25.25-11.26-40.05-11.26c-22.16,0-40.53,7.58-55.13,22.74
		c-14.6,15.16-21.9,37.8-21.9,67.92c0,29.2,7.22,51.61,21.67,67.23c14.45,15.62,32.9,23.43,55.37,23.43
		c10.62,0,20.62-1.99,30.02-5.97c-9.29-6.02-19.09-10.31-29.4-12.86L1733.19,520.61z"/>
</g>
<g>
	<path class="st2" d="M654.79,718.29V675.8h5.62v42.48H654.79z"/>
	<path class="st2" d="M679.45,718.29v-30.77h4.67v4.32c0.97-1.51,2.25-2.72,3.85-3.64c1.6-0.92,3.43-1.38,5.48-1.38
		c2.28,0,4.15,0.47,5.61,1.42c1.46,0.95,2.49,2.27,3.09,3.97c2.43-3.59,5.6-5.39,9.5-5.39c3.05,0,5.4,0.84,7.04,2.54
		s2.46,4.29,2.46,7.81v21.13h-5.19V698.9c0-2.09-0.17-3.59-0.51-4.51c-0.34-0.92-0.95-1.66-1.84-2.22
		c-0.89-0.56-1.93-0.84-3.13-0.84c-2.16,0-3.96,0.72-5.39,2.16c-1.43,1.44-2.14,3.74-2.14,6.91v17.88h-5.22v-20
		c0-2.32-0.43-4.06-1.28-5.22s-2.24-1.74-4.17-1.74c-1.47,0-2.83,0.39-4.07,1.16s-2.15,1.9-2.71,3.39
		c-0.56,1.49-0.84,3.63-0.84,6.43v15.97H679.45z"/>
	<path class="st2" d="M738.68,730.08v-42.57h4.75v4c1.12-1.57,2.39-2.74,3.8-3.52c1.41-0.78,3.12-1.17,5.13-1.17
		c2.63,0,4.95,0.68,6.96,2.03c2.01,1.35,3.53,3.26,4.55,5.72c1.02,2.46,1.54,5.16,1.54,8.1c0,3.15-0.56,5.98-1.69,8.5
		c-1.13,2.52-2.77,4.45-4.93,5.8c-2.15,1.34-4.42,2.01-6.8,2.01c-1.74,0-3.3-0.37-4.68-1.1c-1.38-0.73-2.52-1.66-3.4-2.78v14.98
		H738.68z M743.4,703.07c0,3.96,0.8,6.89,2.41,8.78c1.6,1.89,3.54,2.84,5.82,2.84c2.32,0,4.3-0.98,5.95-2.94
		c1.65-1.96,2.48-5,2.48-9.11c0-3.92-0.81-6.86-2.42-8.81c-1.61-1.95-3.54-2.93-5.78-2.93c-2.22,0-4.19,1.04-5.9,3.12
		C744.26,696.09,743.4,699.11,743.4,703.07z"/>
	<path class="st2" d="M781.36,718.29V675.8h5.22v42.48H781.36z"/>
	<path class="st2" d="M825.52,708.38l5.39,0.67c-0.85,3.15-2.42,5.59-4.72,7.33c-2.3,1.74-5.24,2.61-8.81,2.61
		c-4.5,0-8.07-1.39-10.71-4.16c-2.64-2.77-3.96-6.66-3.96-11.66c0-5.18,1.33-9.2,4-12.06c2.67-2.86,6.12-4.29,10.37-4.29
		c4.11,0,7.48,1.4,10.08,4.2c2.61,2.8,3.91,6.74,3.91,11.82c0,0.31-0.01,0.77-0.03,1.39h-22.95c0.19,3.38,1.15,5.97,2.87,7.77
		c1.72,1.8,3.86,2.7,6.43,2.7c1.91,0,3.54-0.5,4.9-1.51C823.66,712.18,824.73,710.58,825.52,708.38z M808.4,699.94h17.18
		c-0.23-2.59-0.89-4.53-1.97-5.83c-1.66-2.01-3.82-3.01-6.46-3.01c-2.4,0-4.41,0.8-6.04,2.41
		C809.47,695.11,808.57,697.26,808.4,699.94z"/>
	<path class="st2" d="M847.25,718.29v-30.77h4.67v4.32c0.97-1.51,2.25-2.72,3.85-3.64c1.6-0.92,3.43-1.38,5.48-1.38
		c2.28,0,4.15,0.47,5.61,1.42c1.46,0.95,2.49,2.27,3.09,3.97c2.43-3.59,5.6-5.39,9.5-5.39c3.05,0,5.4,0.84,7.04,2.54
		s2.46,4.29,2.46,7.81v21.13h-5.19V698.9c0-2.09-0.17-3.59-0.51-4.51c-0.34-0.92-0.95-1.66-1.84-2.22
		c-0.89-0.56-1.93-0.84-3.13-0.84c-2.16,0-3.96,0.72-5.39,2.16c-1.43,1.44-2.14,3.74-2.14,6.91v17.88h-5.22v-20
		c0-2.32-0.43-4.06-1.28-5.22s-2.24-1.74-4.17-1.74c-1.47,0-2.83,0.39-4.07,1.16s-2.15,1.9-2.71,3.39
		c-0.56,1.49-0.84,3.63-0.84,6.43v15.97H847.25z"/>
	<path class="st2" d="M927.55,708.38l5.39,0.67c-0.85,3.15-2.42,5.59-4.72,7.33c-2.3,1.74-5.24,2.61-8.81,2.61
		c-4.5,0-8.07-1.39-10.71-4.16c-2.64-2.77-3.96-6.66-3.96-11.66c0-5.18,1.33-9.2,4-12.06c2.67-2.86,6.12-4.29,10.37-4.29
		c4.11,0,7.48,1.4,10.08,4.2c2.61,2.8,3.91,6.74,3.91,11.82c0,0.31-0.01,0.77-0.03,1.39h-22.95c0.19,3.38,1.15,5.97,2.87,7.77
		c1.72,1.8,3.86,2.7,6.43,2.7c1.91,0,3.54-0.5,4.9-1.51C925.68,712.18,926.76,710.58,927.55,708.38z M910.42,699.94h17.18
		c-0.23-2.59-0.89-4.53-1.97-5.83c-1.66-2.01-3.82-3.01-6.46-3.01c-2.4,0-4.41,0.8-6.04,2.41
		C911.5,695.11,910.6,697.26,910.42,699.94z"/>
	<path class="st2" d="M949.28,718.29v-30.77h4.69v4.38c2.26-3.38,5.52-5.07,9.8-5.07c1.85,0,3.56,0.33,5.11,1
		c1.55,0.67,2.72,1.54,3.49,2.62s1.31,2.37,1.62,3.85c0.19,0.97,0.29,2.66,0.29,5.07v18.92h-5.21v-18.72c0-2.13-0.2-3.71-0.61-4.77
		s-1.13-1.89-2.16-2.52c-1.04-0.63-2.25-0.94-3.64-0.94c-2.22,0-4.14,0.71-5.75,2.12c-1.61,1.41-2.42,4.09-2.42,8.03v16.81H949.28z"
		/>
	<path class="st2" d="M1003.47,713.62l0.75,4.61c-1.47,0.31-2.78,0.46-3.94,0.46c-1.89,0-3.36-0.3-4.4-0.9
		c-1.04-0.6-1.78-1.39-2.2-2.36s-0.64-3.03-0.64-6.16v-17.71h-3.83v-4.06h3.83v-7.62l5.19-3.13v10.75h5.25v4.06h-5.25v18
		c0,1.49,0.09,2.44,0.28,2.87c0.18,0.42,0.48,0.76,0.9,1.01c0.42,0.25,1.01,0.38,1.78,0.38
		C1001.76,713.82,1002.52,713.75,1003.47,713.62z"/>
	<path class="st2" d="M1016.27,709.1l5.16-0.81c0.29,2.07,1.1,3.65,2.42,4.75c1.32,1.1,3.17,1.65,5.55,1.65
		c2.4,0,4.17-0.49,5.33-1.46s1.74-2.12,1.74-3.43c0-1.18-0.51-2.11-1.54-2.78c-0.71-0.46-2.49-1.05-5.33-1.77
		c-3.83-0.97-6.48-1.8-7.95-2.51c-1.48-0.71-2.6-1.68-3.36-2.93c-0.76-1.25-1.14-2.62-1.14-4.13c0-1.37,0.31-2.64,0.94-3.81
		s1.48-2.14,2.56-2.91c0.81-0.6,1.92-1.11,3.32-1.52c1.4-0.42,2.9-0.62,4.51-0.62c2.42,0,4.54,0.35,6.36,1.04
		c1.83,0.7,3.17,1.64,4.04,2.83c0.87,1.19,1.47,2.78,1.8,4.77l-5.1,0.7c-0.23-1.58-0.9-2.82-2.01-3.71
		c-1.11-0.89-2.68-1.33-4.71-1.33c-2.4,0-4.11,0.4-5.13,1.19c-1.02,0.79-1.54,1.72-1.54,2.78c0,0.68,0.21,1.28,0.64,1.83
		c0.42,0.56,1.09,1.02,2,1.39c0.52,0.19,2.06,0.64,4.61,1.33c3.69,0.99,6.26,1.79,7.72,2.42c1.46,0.63,2.6,1.54,3.43,2.74
		c0.83,1.2,1.25,2.69,1.25,4.46c0,1.74-0.51,3.38-1.52,4.91c-1.01,1.54-2.48,2.72-4.39,3.56c-1.91,0.84-4.08,1.26-6.49,1.26
		c-4,0-7.05-0.83-9.14-2.49C1018.19,714.83,1016.85,712.36,1016.27,709.1z"/>
	<path class="st2" d="M1084.54,718.29V675.8h15.94c3.25,0,5.85,0.43,7.81,1.29c1.96,0.86,3.5,2.18,4.61,3.97
		c1.11,1.79,1.67,3.66,1.67,5.61c0,1.82-0.49,3.53-1.48,5.13s-2.47,2.9-4.46,3.88c2.57,0.75,4.54,2.04,5.93,3.85
		c1.38,1.82,2.07,3.96,2.07,6.43c0,1.99-0.42,3.84-1.26,5.55c-0.84,1.71-1.88,3.03-3.12,3.96c-1.24,0.93-2.79,1.63-4.65,2.1
		s-4.15,0.71-6.85,0.71H1084.54z M1090.16,693.65h9.19c2.49,0,4.28-0.16,5.36-0.49c1.43-0.42,2.51-1.13,3.23-2.12
		s1.09-2.22,1.09-3.71c0-1.41-0.34-2.65-1.01-3.72c-0.68-1.07-1.64-1.81-2.9-2.2c-1.26-0.4-3.41-0.59-6.46-0.59h-8.49V693.65z
		 M1090.16,713.27h10.58c1.82,0,3.09-0.07,3.83-0.2c1.29-0.23,2.38-0.62,3.25-1.16c0.87-0.54,1.58-1.33,2.14-2.36
		c0.56-1.03,0.84-2.23,0.84-3.58c0-1.58-0.41-2.96-1.22-4.13c-0.81-1.17-1.94-1.99-3.38-2.46c-1.44-0.47-3.51-0.71-6.22-0.71h-9.82
		V713.27z"/>
	<path class="st2" d="M1153.65,718.29v-4.52c-2.4,3.48-5.65,5.22-9.77,5.22c-1.82,0-3.51-0.35-5.09-1.04
		c-1.58-0.7-2.74-1.57-3.51-2.62c-0.76-1.05-1.3-2.34-1.61-3.87c-0.21-1.02-0.32-2.65-0.32-4.87v-19.07h5.22v17.07
		c0,2.72,0.11,4.56,0.32,5.5c0.33,1.37,1.02,2.45,2.09,3.23s2.38,1.17,3.94,1.17s3.03-0.4,4.4-1.2c1.37-0.8,2.34-1.89,2.91-3.27
		c0.57-1.38,0.86-3.38,0.86-6.01v-16.49h5.22v30.77H1153.65z"/>
	<path class="st2" d="M1174.19,709.1l5.16-0.81c0.29,2.07,1.1,3.65,2.42,4.75c1.32,1.1,3.17,1.65,5.55,1.65
		c2.4,0,4.17-0.49,5.33-1.46s1.74-2.12,1.74-3.43c0-1.18-0.51-2.11-1.54-2.78c-0.71-0.46-2.49-1.05-5.33-1.77
		c-3.83-0.97-6.48-1.8-7.95-2.51c-1.48-0.71-2.6-1.68-3.36-2.93c-0.76-1.25-1.14-2.62-1.14-4.13c0-1.37,0.31-2.64,0.94-3.81
		s1.48-2.14,2.56-2.91c0.81-0.6,1.92-1.11,3.32-1.52c1.4-0.42,2.9-0.62,4.51-0.62c2.42,0,4.54,0.35,6.36,1.04
		c1.83,0.7,3.17,1.64,4.04,2.83c0.87,1.19,1.47,2.78,1.8,4.77l-5.1,0.7c-0.23-1.58-0.9-2.82-2.01-3.71
		c-1.11-0.89-2.68-1.33-4.71-1.33c-2.4,0-4.11,0.4-5.13,1.19c-1.02,0.79-1.54,1.72-1.54,2.78c0,0.68,0.21,1.28,0.64,1.83
		c0.42,0.56,1.09,1.02,2,1.39c0.52,0.19,2.06,0.64,4.61,1.33c3.69,0.99,6.26,1.79,7.72,2.42c1.46,0.63,2.6,1.54,3.43,2.74
		c0.83,1.2,1.25,2.69,1.25,4.46c0,1.74-0.51,3.38-1.52,4.91c-1.01,1.54-2.48,2.72-4.39,3.56c-1.91,0.84-4.08,1.26-6.49,1.26
		c-4,0-7.05-0.83-9.14-2.49C1176.11,714.83,1174.77,712.36,1174.19,709.1z"/>
	<path class="st2" d="M1215.77,681.8v-6h5.22v6H1215.77z M1215.77,718.29v-30.77h5.22v30.77H1215.77z"/>
	<path class="st2" d="M1238.72,718.29v-30.77h4.69v4.38c2.26-3.38,5.52-5.07,9.79-5.07c1.85,0,3.56,0.33,5.11,1
		c1.55,0.67,2.72,1.54,3.49,2.62c0.77,1.08,1.31,2.37,1.62,3.85c0.19,0.97,0.29,2.66,0.29,5.07v18.92h-5.22v-18.72
		c0-2.13-0.2-3.71-0.61-4.77c-0.41-1.05-1.13-1.89-2.16-2.52c-1.03-0.63-2.25-0.94-3.64-0.94c-2.22,0-4.14,0.71-5.75,2.12
		c-1.61,1.41-2.42,4.09-2.42,8.03v16.81H1238.72z"/>
	<path class="st2" d="M1302.59,708.38l5.39,0.67c-0.85,3.15-2.42,5.59-4.72,7.33c-2.3,1.74-5.24,2.61-8.81,2.61
		c-4.5,0-8.07-1.39-10.71-4.16c-2.64-2.77-3.96-6.66-3.96-11.66c0-5.18,1.33-9.2,4-12.06c2.67-2.86,6.12-4.29,10.37-4.29
		c4.12,0,7.48,1.4,10.08,4.2c2.61,2.8,3.91,6.74,3.91,11.82c0,0.31-0.01,0.77-0.03,1.39h-22.95c0.19,3.38,1.15,5.97,2.87,7.77
		s3.86,2.7,6.43,2.7c1.91,0,3.54-0.5,4.9-1.51C1300.72,712.18,1301.79,710.58,1302.59,708.38z M1285.46,699.94h17.18
		c-0.23-2.59-0.89-4.53-1.97-5.83c-1.66-2.01-3.82-3.01-6.46-3.01c-2.4,0-4.41,0.8-6.04,2.41
		C1286.54,695.11,1285.63,697.26,1285.46,699.94z"/>
	<path class="st2" d="M1322.23,709.1l5.16-0.81c0.29,2.07,1.1,3.65,2.42,4.75c1.32,1.1,3.17,1.65,5.55,1.65
		c2.4,0,4.17-0.49,5.33-1.46s1.74-2.12,1.74-3.43c0-1.18-0.51-2.11-1.54-2.78c-0.71-0.46-2.49-1.05-5.33-1.77
		c-3.83-0.97-6.48-1.8-7.95-2.51c-1.48-0.71-2.6-1.68-3.36-2.93c-0.76-1.25-1.14-2.62-1.14-4.13c0-1.37,0.31-2.64,0.94-3.81
		s1.48-2.14,2.56-2.91c0.81-0.6,1.92-1.11,3.32-1.52c1.4-0.42,2.9-0.62,4.51-0.62c2.42,0,4.54,0.35,6.36,1.04
		c1.83,0.7,3.17,1.64,4.04,2.83c0.87,1.19,1.47,2.78,1.8,4.77l-5.1,0.7c-0.23-1.58-0.9-2.82-2.01-3.71
		c-1.11-0.89-2.68-1.33-4.71-1.33c-2.4,0-4.11,0.4-5.13,1.19c-1.02,0.79-1.54,1.72-1.54,2.78c0,0.68,0.21,1.28,0.64,1.83
		c0.42,0.56,1.09,1.02,2,1.39c0.52,0.19,2.06,0.64,4.61,1.33c3.69,0.99,6.26,1.79,7.72,2.42c1.46,0.63,2.6,1.54,3.43,2.74
		c0.83,1.2,1.25,2.69,1.25,4.46c0,1.74-0.51,3.38-1.52,4.91c-1.01,1.54-2.48,2.72-4.39,3.56c-1.91,0.84-4.08,1.26-6.49,1.26
		c-4,0-7.05-0.83-9.14-2.49C1324.15,714.83,1322.81,712.36,1322.23,709.1z"/>
	<path class="st2" d="M1361.7,709.1l5.16-0.81c0.29,2.07,1.1,3.65,2.42,4.75c1.32,1.1,3.17,1.65,5.55,1.65
		c2.4,0,4.17-0.49,5.33-1.46s1.74-2.12,1.74-3.43c0-1.18-0.51-2.11-1.54-2.78c-0.71-0.46-2.49-1.05-5.33-1.77
		c-3.83-0.97-6.48-1.8-7.95-2.51c-1.48-0.71-2.6-1.68-3.36-2.93c-0.76-1.25-1.14-2.62-1.14-4.13c0-1.37,0.31-2.64,0.94-3.81
		s1.48-2.14,2.56-2.91c0.81-0.6,1.92-1.11,3.32-1.52c1.4-0.42,2.9-0.62,4.51-0.62c2.42,0,4.54,0.35,6.36,1.04
		c1.83,0.7,3.17,1.64,4.04,2.83c0.87,1.19,1.47,2.78,1.8,4.77l-5.1,0.7c-0.23-1.58-0.9-2.82-2.01-3.71
		c-1.11-0.89-2.68-1.33-4.71-1.33c-2.4,0-4.11,0.4-5.13,1.19c-1.02,0.79-1.54,1.72-1.54,2.78c0,0.68,0.21,1.28,0.64,1.83
		c0.42,0.56,1.09,1.02,2,1.39c0.52,0.19,2.06,0.64,4.61,1.33c3.69,0.99,6.26,1.79,7.72,2.42c1.46,0.63,2.6,1.54,3.43,2.74
		c0.83,1.2,1.25,2.69,1.25,4.46c0,1.74-0.51,3.38-1.52,4.91c-1.01,1.54-2.48,2.72-4.39,3.56c-1.91,0.84-4.08,1.26-6.49,1.26
		c-4,0-7.05-0.83-9.14-2.49C1363.61,714.83,1362.28,712.36,1361.7,709.1z"/>
	<path class="st2" d="M1430.31,718.29V675.8h30.72v5.01h-25.09v13.01h23.5v4.98h-23.5v14.46h26.08v5.01H1430.31z"/>
	<path class="st2" d="M1475.43,718.29l11.24-16l-10.4-14.78h6.52l4.72,7.22c0.89,1.37,1.6,2.52,2.14,3.45
		c0.85-1.28,1.63-2.41,2.35-3.39l5.19-7.27h6.23L1492.79,702l11.45,16.29h-6.4l-6.32-9.56l-1.68-2.58l-8.08,12.14H1475.43z"/>
	<path class="st2" d="M1518.37,730.08v-42.57h4.75v4c1.12-1.57,2.39-2.74,3.8-3.52c1.41-0.78,3.12-1.17,5.13-1.17
		c2.63,0,4.95,0.68,6.95,2.03c2.01,1.35,3.53,3.26,4.55,5.72c1.02,2.46,1.54,5.16,1.54,8.1c0,3.15-0.57,5.98-1.7,8.5
		c-1.13,2.52-2.77,4.45-4.93,5.8s-4.42,2.01-6.79,2.01c-1.74,0-3.3-0.37-4.68-1.1c-1.38-0.73-2.52-1.66-3.41-2.78v14.98H1518.37z
		 M1523.09,703.07c0,3.96,0.8,6.89,2.41,8.78c1.6,1.89,3.54,2.84,5.82,2.84c2.32,0,4.3-0.98,5.96-2.94c1.65-1.96,2.48-5,2.48-9.11
		c0-3.92-0.81-6.86-2.42-8.81s-3.54-2.93-5.78-2.93c-2.22,0-4.19,1.04-5.9,3.12C1523.95,696.09,1523.09,699.11,1523.09,703.07z"/>
	<path class="st2" d="M1582.23,708.38l5.39,0.67c-0.85,3.15-2.42,5.59-4.72,7.33c-2.3,1.74-5.24,2.61-8.81,2.61
		c-4.5,0-8.07-1.39-10.71-4.16c-2.64-2.77-3.96-6.66-3.96-11.66c0-5.18,1.33-9.2,4-12.06c2.67-2.86,6.12-4.29,10.37-4.29
		c4.12,0,7.48,1.4,10.08,4.2c2.61,2.8,3.91,6.74,3.91,11.82c0,0.31-0.01,0.77-0.03,1.39h-22.95c0.19,3.38,1.15,5.97,2.87,7.77
		s3.86,2.7,6.43,2.7c1.91,0,3.54-0.5,4.9-1.51C1580.37,712.18,1581.44,710.58,1582.23,708.38z M1565.11,699.94h17.18
		c-0.23-2.59-0.89-4.53-1.97-5.83c-1.66-2.01-3.82-3.01-6.46-3.01c-2.4,0-4.41,0.8-6.04,2.41
		C1566.19,695.11,1565.28,697.26,1565.11,699.94z"/>
	<path class="st2" d="M1624.05,707.01l5.13,0.67c-0.56,3.54-2,6.3-4.3,8.3s-5.14,3-8.5,3c-4.21,0-7.6-1.38-10.16-4.13
		c-2.56-2.75-3.84-6.7-3.84-11.84c0-3.32,0.55-6.23,1.65-8.72c1.1-2.49,2.78-4.36,5.03-5.61c2.25-1.25,4.7-1.87,7.35-1.87
		c3.34,0,6.08,0.84,8.2,2.54s3.49,4.09,4.09,7.2l-5.07,0.78c-0.48-2.07-1.34-3.62-2.56-4.67s-2.71-1.57-4.45-1.57
		c-2.63,0-4.76,0.94-6.4,2.83c-1.64,1.88-2.46,4.86-2.46,8.94c0,4.13,0.79,7.14,2.38,9.01c1.58,1.87,3.65,2.81,6.2,2.81
		c2.05,0,3.76-0.63,5.13-1.88C1622.81,711.55,1623.68,709.62,1624.05,707.01z"/>
	<path class="st2" d="M1654.82,713.62l0.75,4.61c-1.47,0.31-2.78,0.46-3.94,0.46c-1.89,0-3.36-0.3-4.4-0.9
		c-1.04-0.6-1.78-1.39-2.2-2.36s-0.64-3.03-0.64-6.16v-17.71h-3.83v-4.06h3.83v-7.62l5.19-3.13v10.75h5.25v4.06h-5.25v18
		c0,1.49,0.09,2.44,0.28,2.87c0.18,0.42,0.48,0.76,0.9,1.01c0.42,0.25,1.01,0.38,1.78,0.38
		C1653.11,713.82,1653.87,713.75,1654.82,713.62z"/>
	<path class="st2" d="M1689.79,714.49c-1.93,1.64-3.79,2.8-5.58,3.48c-1.79,0.68-3.7,1.01-5.75,1.01c-3.38,0-5.98-0.83-7.79-2.48
		c-1.82-1.65-2.72-3.76-2.72-6.33c0-1.51,0.34-2.88,1.03-4.13s1.58-2.25,2.7-3c1.11-0.75,2.36-1.32,3.75-1.71
		c1.02-0.27,2.57-0.53,4.64-0.78c4.21-0.5,7.31-1.1,9.3-1.8c0.02-0.71,0.03-1.17,0.03-1.36c0-2.13-0.49-3.62-1.48-4.49
		c-1.33-1.18-3.31-1.77-5.94-1.77c-2.45,0-4.26,0.43-5.43,1.29s-2.03,2.38-2.59,4.56l-5.1-0.7c0.46-2.18,1.23-3.95,2.29-5.29
		s2.6-2.38,4.61-3.1c2.01-0.72,4.34-1.09,6.98-1.09c2.63,0,4.76,0.31,6.4,0.93c1.64,0.62,2.85,1.4,3.62,2.33
		c0.77,0.94,1.31,2.12,1.62,3.55c0.17,0.89,0.26,2.49,0.26,4.81v6.95c0,4.85,0.11,7.92,0.33,9.2c0.22,1.28,0.66,2.52,1.32,3.69
		h-5.45C1690.3,717.2,1689.95,715.94,1689.79,714.49z M1689.36,702.84c-1.89,0.77-4.73,1.43-8.52,1.97
		c-2.14,0.31-3.66,0.66-4.55,1.04c-0.89,0.39-1.58,0.95-2.06,1.7c-0.48,0.74-0.72,1.57-0.72,2.48c0,1.39,0.53,2.55,1.58,3.48
		c1.05,0.93,2.59,1.39,4.62,1.39c2.01,0,3.8-0.44,5.36-1.32c1.56-0.88,2.71-2.08,3.45-3.61c0.56-1.18,0.84-2.92,0.84-5.22V702.84z"
		/>
	<path class="st2" d="M1723.9,713.62l0.75,4.61c-1.47,0.31-2.78,0.46-3.94,0.46c-1.89,0-3.36-0.3-4.4-0.9
		c-1.04-0.6-1.78-1.39-2.2-2.36s-0.64-3.03-0.64-6.16v-17.71h-3.83v-4.06h3.83v-7.62l5.19-3.13v10.75h5.25v4.06h-5.25v18
		c0,1.49,0.09,2.44,0.28,2.87c0.18,0.42,0.48,0.76,0.9,1.01c0.42,0.25,1.01,0.38,1.78,0.38
		C1722.19,713.82,1722.95,713.75,1723.9,713.62z"/>
	<path class="st2" d="M1738.82,681.8v-6h5.22v6H1738.82z M1738.82,718.29v-30.77h5.22v30.77H1738.82z"/>
	<path class="st2" d="M1759.83,702.9c0-5.7,1.58-9.92,4.75-12.66c2.65-2.28,5.87-3.42,9.68-3.42c4.23,0,7.69,1.39,10.37,4.16
		s4.03,6.6,4.03,11.49c0,3.96-0.59,7.08-1.78,9.35c-1.19,2.27-2.92,4.03-5.19,5.29c-2.27,1.26-4.75,1.88-7.43,1.88
		c-4.31,0-7.79-1.38-10.45-4.14S1759.83,708.09,1759.83,702.9z M1765.19,702.9c0,3.94,0.86,6.89,2.58,8.85s3.88,2.94,6.49,2.94
		c2.59,0,4.74-0.99,6.46-2.96s2.58-4.97,2.58-9.01c0-3.81-0.86-6.69-2.59-8.65c-1.73-1.96-3.88-2.94-6.45-2.94
		c-2.61,0-4.77,0.98-6.49,2.93S1765.19,698.96,1765.19,702.9z"/>
	<path class="st2" d="M1804.57,718.29v-30.77h4.69v4.38c2.26-3.38,5.52-5.07,9.79-5.07c1.85,0,3.56,0.33,5.11,1
		c1.55,0.67,2.72,1.54,3.49,2.62c0.77,1.08,1.31,2.37,1.62,3.85c0.19,0.97,0.29,2.66,0.29,5.07v18.92h-5.22v-18.72
		c0-2.13-0.2-3.71-0.61-4.77c-0.41-1.05-1.13-1.89-2.16-2.52c-1.03-0.63-2.25-0.94-3.64-0.94c-2.22,0-4.14,0.71-5.75,2.12
		c-1.61,1.41-2.42,4.09-2.42,8.03v16.81H1804.57z"/>
</g>
<path class="st1" d="M78.11,741.2c0,33.89,27.47,61.36,61.36,61.36h402.4c33.89,0,61.36-27.47,61.36-61.36V338.8
	c0-33.89-27.47-61.36-61.36-61.36h-402.4c-33.89,0-61.36,27.47-61.36,61.36V741.2z"/>
<path class="st3" d="M-459.83,743.91c-1.69,2.19-3.26,4.38-4.71,6.57"/>
<path class="st3" d="M-459.49,452.83c-1.68-2.23-3.25-4.4-4.69-6.59"/>
<path class="st4" d="M324.54,447.23c0,0,13.87,16.64,26.36,23.07c0,0,14.57,8.33,22.38,9.89h89c0,0,13.88,1.74,13.88,18.22v68.53
	v16.66c0,0-0.53,14.23-15.27,15.79h-87.26c0,0-19.07,6.24-29.31,13.87c0,0-15.09,11.1-19.77,19.08v69.39v14.57
	c0,0-1.22,14.49-15.79,15.35h-87.61c0,0-14.05,0.44-15.97-15.18v-90.55c0,0,2.6-14.23,17-13.88h89.69c0,0,13.36-2.77,28.8-15.61
	c15.45-12.84,16.14-17.69,16.14-17.69v-77.9c0,0-9.89-13.88-18.04-18.74c0,0-14.23-11.8-26.9-14.75h-92.98
	c0,0-10.07-0.87-13.71-13.36v-91.6c0,0,2.08-12.69,14.05-14.05h92.29c0,0,12.66,2.6,12.84,15.09L324.54,447.23z"/>
</svg>
